<svg height="442pt" viewBox="0 0 442 442.32" width="442pt" xmlns="http://www.w3.org/2000/svg"><path d="m234.472656 0c-114.824218.128906-207.871094 93.179688-208 208-.121094 33.136719 7.808594 65.804688 23.101563 95.199219 1.046875 2.011719 1.191406 4.375.394531 6.496093l-49.808594 132.625 132.617188-49.808593c2.121094-.800781 4.488281-.660157 6.503906.382812 29.390625 15.296875 62.058594 23.222657 95.191406 23.105469 114.875 0 208-93.125 208-208s-93.125-208-208-208zm24 368c0 4.417969-3.582031 8-8 8h-32c-4.417968 0-8-3.582031-8-8v-240c0-4.417969 3.582032-8 8-8h32c4.417969 0 8 3.582031 8 8zm-24-264c-17.671875 0-32-14.328125-32-32s14.328125-32 32-32 32 14.328125 32 32-14.328125 32-32 32zm0 0"/><path d="m250.472656 72c0 8.835938-7.164062 16-16 16-8.835937 0-16-7.164062-16-16s7.164063-16 16-16c8.835938 0 16 7.164062 16 16zm0 0"/><path d="m226.472656 136h16v224h-16zm0 0"/></svg>