<?xml version="1.0" encoding="utf-8"?>
<!-- Generator: Adobe Illustrator 23.0.1, SVG Export Plug-In . SVG Version: 6.00 Build 0)  -->
<svg version="1.1" id="Capa_1" xmlns="http://www.w3.org/2000/svg" xmlns:xlink="http://www.w3.org/1999/xlink" x="0px" y="0px"
	 viewBox="0 0 485.2 485.2" style="enable-background:new 0 0 485.2 485.2;" xml:space="preserve">
<g>
	<g>
		<path d="M331.4,175.1c-9.7,0-17.5,7.9-17.5,17.5c0,9.7,7.9,17.5,17.5,17.5s17.5-7.9,17.5-17.5C348.9,182.9,341,175.1,331.4,175.1z
			"/>
		<path d="M431.2,7.3c-3.8-0.8-7.6,1.2-9.1,4.8l-23.4,55c-1.1-0.1-2.2-0.1-3.3-0.1H101.8l-26.4-62c-1.5-3.5-5.3-5.5-9.1-4.8
			c-3.8,0.8-6.5,4.1-6.5,7.9v286.2c0,23.3,19,42.3,42.3,42.3h104.4c-22.3,13.7-37.4,37.8-38.5,65.6c-8,8.3-41.3,40-84.6,41.6
			c-20.2,0.8-39.9-5.1-58.9-17.5c-0.1,5.6-0.3,11.2-1,16.8c-0.1,0.5-0.2,0.9-0.4,1.3c19.6,11.1,40,16.4,60.9,15.6
			c37.2-1.4,67.2-21.4,83.8-35.5v52.6c0,4.5,3.6,8.1,8.1,8.1c4.5,0,8.1-3.6,8.1-8.1v-71.6c0-24.8,14.1-46.4,34.6-57.2v128.8
			c0,4.5,3.6,8.1,8.1,8.1c4.5,0,8.1-3.6,8.1-8.1V342.3c4.5-1,9.2-1.6,13.9-1.6c6.4,0,12.6,1,18.5,2.7v133.6c0,4.5,3.6,8.1,8.1,8.1
			c4.5,0,8.1-3.6,8.1-8.1V350.9c18.1,11.5,30.1,31.7,30.1,54.6v71.5c0,4.5,3.6,8.1,8.1,8.1c4.5,0,8.1-3.6,8.1-8.1v-71.5
			c0-29.1-15.5-54.7-38.7-68.9h104.4c23.3,0,42.3-19,42.3-42.3V15.2C437.7,11.4,435,8.1,431.2,7.3z M166.2,226.3
			c-18.6,0-33.7-15.1-33.7-33.7s15.1-33.7,33.7-33.7c18.6,0,33.7,15.1,33.7,33.7C199.9,211.2,184.8,226.3,166.2,226.3z M251,313.5
			c-17.9,0-32.4-14.5-32.4-32.4c0-4.5,3.6-8.1,8.1-8.1c4.5,0,8.1,3.6,8.1,8.1c0,6.1,3.4,11.3,8.4,14.1c-0.1-0.6-0.3-1.3-0.3-1.9
			v-25.8l-16.8-1.2c-4.5-0.3-7.8-4.2-7.5-8.7c0.3-4.5,4.2-7.8,8.7-7.5l23.7,1.8l23.7-1.8c4.6-0.2,8.4,3,8.7,7.5
			c0.3,4.5-3,8.3-7.5,8.7l-16.8,1.2v25.8c0,0.7-0.1,1.3-0.3,1.9c5-2.8,8.4-8,8.4-14.1c0-4.5,3.6-8.1,8.1-8.1c4.5,0,8.1,3.6,8.1,8.1
			C283.4,299,268.9,313.5,251,313.5z M331.4,226.3c-18.6,0-33.7-15.1-33.7-33.7s15.1-33.7,33.7-33.7c18.6,0,33.7,15.1,33.7,33.7
			C365.1,211.2,350,226.3,331.4,226.3z"/>
		<path d="M166.2,175.1c-9.7,0-17.5,7.9-17.5,17.5c0,9.7,7.9,17.5,17.5,17.5c9.7,0,17.5-7.9,17.5-17.5
			C183.7,182.9,175.9,175.1,166.2,175.1z"/>
	</g>
</g>
</svg>
