<?xml version="1.0" encoding="utf-8"?>
<!-- Generator: Adobe Illustrator 23.0.1, SVG Export Plug-In . SVG Version: 6.00 Build 0)  -->
<svg version="1.1" id="Layer_1" xmlns="http://www.w3.org/2000/svg" xmlns:xlink="http://www.w3.org/1999/xlink" x="0px" y="0px"
	 viewBox="0 0 444 444" style="enable-background:new 0 0 444 444;" xml:space="preserve">
<path d="M222.3,252.2c-30.9,0-55.9,25-55.9,55.9V396h111.8v-87.9C278.2,277.2,253.2,252.2,222.3,252.2z"/>
<path d="M246.3,164.3c0,13.2-10.7,24-24,24c-13.2,0-24-10.7-24-24s10.7-24,24-24C235.5,140.4,246.3,151.1,246.3,164.3z"/>
<path d="M38.6,411.9H406v16H38.6V411.9z"/>
<path d="M94.8,196.6L109.9,396h40.5v-87.9c0-39.7,32.2-71.9,71.9-71.9c39.7,0,71.9,32.2,71.9,71.9V396h40.5l15.2-199.4L222.3,69.1
	L94.8,196.6z M262.2,164.3c0,22.1-17.9,39.9-39.9,39.9c-22.1,0-39.9-17.9-39.9-39.9c0-22.1,17.9-39.9,39.9-39.9
	C244.3,124.4,262.2,142.3,262.2,164.3z"/>
<path d="M436.9,238.5L222.3,23.9L7.7,238.5L19,249.7L216.7,52.1c3.1-3.1,8.2-3.1,11.3,0l197.7,197.6L436.9,238.5z"/>
</svg>
