<svg height="448pt" viewBox="0 0 448 448" width="448pt" xmlns="http://www.w3.org/2000/svg"><path d="m448 224h-112v168c0 30.929688 25.070312 56 56 56s56-25.070312 56-56zm0 0"/><path d="m32 32h80v80h-80zm0 0"/><path d="m0 0v392c.0351562 30.914062 25.085938 55.964844 56 56h290.847656c-16.96875-13.636719-26.84375-34.230469-26.847656-56v-392zm16 24c0-4.417969 3.582031-8 8-8h96c4.417969 0 8 3.582031 8 8v96c0 4.417969-3.582031 8-8 8h-96c-4.417969 0-8-3.582031-8-8zm64 336c0 3.597656-2.398438 6.75-5.863281 7.710938-.695313.191406-1.414063.289062-2.136719.289062-2.808594 0-5.410156-1.472656-6.855469-3.878906l-33.144531-55.242188v51.121094c0 4.417969-3.582031 8-8 8s-8-3.582031-8-8v-80c0-3.59375 2.398438-6.746094 5.863281-7.707031 3.460938-.960938 7.140625.507812 8.992188 3.585937l33.144531 55.242188v-51.121094c0-4.417969 3.582031-8 8-8s8 3.582031 8 8zm48-48c4.417969 0 8 3.582031 8 8s-3.582031 8-8 8h-16v24h24c4.417969 0 8 3.582031 8 8s-3.582031 8-8 8h-32c-4.417969 0-8-3.582031-8-8v-80c0-4.417969 3.582031-8 8-8h32c4.417969 0 8 3.582031 8 8s-3.582031 8-8 8h-24v24zm96 48.800781c-.375 3.753907-3.324219 6.734375-7.070312 7.152344-.308594.03125-.621094.046875-.929688.046875-3.445312 0-6.503906-2.203125-7.59375-5.472656l-16.40625-49.230469-16.40625 49.230469c-1.191406 3.582031-4.726562 5.84375-8.476562 5.429687-3.753907-.417969-6.703126-3.402343-7.078126-7.15625l-8-80c-.441406-4.40625 2.773438-8.339843 7.179688-8.78125 4.410156-.441406 8.339844 2.773438 8.78125 7.179688l4.28125 42.785156 12.167969-36.511719c1.078125-3.285156 4.144531-5.503906 7.597656-5.503906 3.457031 0 6.523437 2.21875 7.601563 5.503906l12.167968 36.511719 4.28125-42.785156c.441406-4.394531 4.363282-7.601563 8.757813-7.160157 4.398437.441407 7.601562 4.363282 7.160156 8.761719zm80-64.800781c0 4.417969-3.582031 8-8 8s-8-3.582031-8-8v-8h-24v24h32c4.417969 0 8 3.582031 8 8v40c0 4.417969-3.582031 8-8 8h-40c-4.417969 0-8-3.582031-8-8v-16c0-4.417969 3.582031-8 8-8s8 3.582031 8 8v8h24v-24h-32c-4.417969 0-8-3.582031-8-8v-40c0-4.417969 3.582031-8 8-8h40c4.417969 0 8 3.582031 8 8zm-8-64h-272c-4.417969 0-8-3.582031-8-8s3.582031-8 8-8h272c4.417969 0 8 3.582031 8 8s-3.582031 8-8 8zm0-32h-272c-4.417969 0-8-3.582031-8-8s3.582031-8 8-8h272c4.417969 0 8 3.582031 8 8s-3.582031 8-8 8zm0-32h-272c-4.417969 0-8-3.582031-8-8s3.582031-8 8-8h272c4.417969 0 8 3.582031 8 8s-3.582031 8-8 8zm0-56h-144c-4.417969 0-8-3.582031-8-8s3.582031-8 8-8h144c4.417969 0 8 3.582031 8 8s-3.582031 8-8 8zm0-32h-144c-4.417969 0-8-3.582031-8-8s3.582031-8 8-8h144c4.417969 0 8 3.582031 8 8s-3.582031 8-8 8zm0-32h-144c-4.417969 0-8-3.582031-8-8s3.582031-8 8-8h144c4.417969 0 8 3.582031 8 8s-3.582031 8-8 8zm0 0"/></svg>