<?xml version="1.0" standalone="no"?>
<!DOCTYPE svg PUBLIC "-//W3C//DTD SVG 20010904//EN"
 "http://www.w3.org/TR/2001/REC-SVG-20010904/DTD/svg10.dtd">
<svg version="1.0" xmlns="http://www.w3.org/2000/svg"
 width="512.000000pt" height="512.000000pt" viewBox="0 0 512.000000 512.000000"
 preserveAspectRatio="xMidYMid meet">
<metadata>
Created by potrace 1.11, written by Peter Selinger 2001-2013
</metadata>
<g transform="translate(0.000000,512.000000) scale(0.100000,-0.100000)"
fill="#000000" stroke="none">
<path d="M0 2560 l0 -2560 2560 0 2560 0 0 2560 0 2560 -364 0 -363 0 9 -47
c8 -44 -5 -254 -18 -274 -2 -4 -10 -38 -18 -76 -27 -131 -90 -282 -144 -341
-12 -14 -25 -36 -28 -49 -8 -31 23 -131 48 -159 15 -17 21 -41 24 -105 6 -108
-1 -149 -26 -149 -15 0 -21 12 -30 58 -18 84 -45 127 -73 116 -9 -3 -18 2 -21
14 -8 23 -119 57 -157 47 -13 -3 -53 3 -89 14 -36 12 -75 21 -87 21 -13 0 -23
6 -23 13 0 18 -123 56 -173 54 -24 0 -42 5 -48 14 -8 12 -10 12 -18 0 -15 -24
-31 -2 -31 44 0 24 -5 47 -10 50 -7 4 -7 13 0 26 9 15 7 21 -6 26 -9 3 -19 1
-23 -4 -9 -14 -51 -23 -51 -11 0 6 -9 3 -19 -6 -18 -16 -23 -17 -50 -3 -34 17
-51 7 -51 -31 0 -15 -13 -37 -30 -54 -16 -15 -30 -32 -30 -37 0 -5 -9 -11 -20
-14 -11 -3 -20 -14 -20 -25 0 -13 -8 -21 -26 -25 -49 -9 -45 41 11 121 19 29
35 57 35 63 0 7 33 45 73 84 77 76 118 122 182 206 47 61 391 411 420 427 15
8 -483 11 -1927 12 l-1948 0 0 -2560z m1951 2070 c-10 -202 -3 -493 15 -632 6
-48 17 -61 28 -33 3 8 12 15 21 15 10 0 15 10 15 32 0 30 23 68 42 68 4 0 8
-7 8 -15 0 -8 5 -15 10 -15 6 0 10 -7 10 -15 0 -8 -7 -15 -15 -15 -9 0 -15 -9
-15 -25 0 -14 -6 -28 -13 -31 -15 -5 -12 -105 4 -135 10 -20 -13 -111 -30
-117 -9 -3 -11 0 -6 8 4 7 8 27 7 44 0 17 4 34 11 38 8 5 8 13 -1 32 -10 23
-14 25 -32 14 -12 -8 -18 -19 -14 -28 4 -8 8 -35 10 -60 3 -47 39 -198 48
-208 12 -12 16 6 7 31 -8 19 -6 28 5 37 19 17 19 51 -1 44 -11 -4 -15 0 -15
16 0 36 23 103 41 121 16 16 18 15 27 -5 7 -14 11 -16 12 -6 1 10 4 9 9 -5 5
-11 4 -30 -2 -42 -9 -21 -2 -62 9 -51 9 10 15 101 9 130 -4 16 -11 26 -16 22
-5 -3 -9 4 -9 16 0 16 4 19 24 14 21 -5 25 0 40 42 23 67 21 114 -3 121 -24 6
-28 22 -21 87 6 58 25 71 35 25 4 -17 14 -48 23 -68 8 -20 16 -45 16 -56 1
-11 7 -19 14 -18 16 4 15 -22 -2 -36 -11 -9 -15 -9 -18 1 -16 48 -65 -167 -73
-324 l-7 -127 31 -43 c27 -36 31 -39 31 -19 l0 23 25 -23 c13 -13 25 -32 25
-41 0 -10 4 -18 9 -18 14 0 48 -77 62 -140 6 -30 16 -61 22 -68 5 -7 7 -30 4
-51 -4 -31 -2 -38 11 -37 10 1 19 -10 23 -29 4 -16 7 -24 8 -17 0 7 6 10 11 7
6 -3 10 -30 10 -58 l1 -52 13 35 c24 64 46 110 52 110 4 0 3 -10 0 -22 -4 -13
-9 -57 -12 -98 -8 -103 10 -81 30 36 13 75 14 101 4 143 -11 51 -5 78 12 51 6
-8 10 -30 10 -48 0 -20 4 -31 10 -27 10 6 12 -10 11 -80 0 -22 2 -34 5 -27 10
21 24 13 24 -13 0 -14 6 -34 12 -45 9 -14 10 -22 1 -31 -8 -8 -13 -3 -18 20
-4 17 -10 29 -15 26 -7 -5 2 -73 15 -108 7 -17 8 -17 21 0 9 13 13 14 14 4 0
-27 29 10 36 47 6 31 8 33 15 17 5 -13 8 -15 9 -5 0 12 3 12 14 -2 12 -16 14
-16 24 8 10 21 9 28 -9 47 l-21 22 7 -22 c4 -14 2 -23 -4 -23 -6 0 -11 10 -11
23 0 13 -4 27 -9 33 -11 10 -27 92 -17 83 3 -3 13 -26 21 -50 l15 -44 -5 53
c-2 28 0 52 4 52 12 0 39 -43 47 -73 5 -23 8 -24 25 -14 10 6 19 23 20 37 0
23 1 23 9 5 7 -17 9 -14 10 15 l2 35 13 -35 c13 -34 14 -33 10 33 -2 50 1 71
12 82 8 8 11 20 8 25 -4 6 -8 97 -9 202 -2 124 1 182 7 165 9 -27 9 -27 25 -6
11 13 23 18 34 14 16 -6 16 -9 2 -30 -8 -12 -12 -30 -8 -39 6 -15 7 -15 19 0
11 15 13 11 19 -32 4 -27 10 -58 13 -69 5 -17 4 -18 -11 -6 -14 12 -16 10 -16
-17 0 -17 5 -34 10 -37 6 -3 11 -16 11 -28 1 -17 3 -15 9 8 7 30 7 30 15 -12
4 -24 14 -51 22 -60 13 -16 13 -16 3 5 -7 13 -9 26 -7 29 10 10 49 -81 49
-114 0 -18 4 -33 9 -33 5 0 9 9 9 20 0 11 5 20 11 20 7 0 8 -7 4 -17 -14 -38
-17 -73 -6 -73 6 0 11 6 12 13 1 6 5 -6 10 -27 6 -23 6 -42 1 -45 -20 -13 -23
-50 -6 -76 21 -32 29 -32 44 5 17 40 35 52 26 16 -7 -30 9 -36 19 -6 3 11 12
20 19 20 9 0 12 16 12 50 0 28 -4 50 -8 50 -5 0 -3 9 4 20 10 16 10 24 1 40
-8 12 -9 21 -3 25 14 9 12 25 -2 23 -7 -2 -12 5 -10 15 2 9 -2 17 -9 17 -11 0
-9 15 7 55 7 18 6 19 -11 5 -17 -14 -18 -13 -13 7 4 13 2 26 -3 29 -5 3 -9 16
-9 30 0 13 -4 24 -9 24 -5 0 -5 17 0 41 10 45 -1 80 -12 39 -7 -24 -7 -24 -8
-2 -1 26 -16 29 -26 5 -7 -16 -9 -15 -15 7 -8 24 -8 24 -9 3 -1 -13 -5 -23
-11 -23 -17 0 -11 20 15 46 25 24 35 51 15 39 -6 -3 -13 1 -16 9 -5 13 -9 12
-25 -8 -10 -13 -19 -35 -20 -48 l0 -23 -11 25 c-5 14 -8 62 -5 109 4 62 2 88
-8 98 -18 17 -25 16 -25 -3 0 -28 -25 -8 -28 22 -1 16 -12 49 -25 73 -16 32
-19 45 -9 48 6 3 11 17 11 31 -1 18 -3 21 -6 9 -4 -16 -8 -15 -31 9 -15 15
-22 29 -16 31 18 6 -2 90 -32 128 -14 19 -23 38 -20 44 3 5 -1 22 -11 38 -10
18 -14 37 -9 49 7 18 8 17 26 -6 11 -14 20 -29 20 -35 0 -5 18 -20 40 -33 30
-17 41 -30 46 -58 4 -24 11 -34 20 -30 11 4 13 -1 8 -18 -3 -14 0 -27 10 -35
17 -14 11 -70 -8 -83 -7 -5 -6 -14 3 -30 7 -13 11 -28 10 -34 -1 -5 -1 -22 0
-39 1 -27 2 -28 17 -13 9 9 17 31 17 50 0 85 -7 187 -14 183 -4 -3 -9 2 -13
10 -3 8 -1 15 5 15 12 0 3 168 -12 239 -13 56 -17 88 -24 168 -2 34 -11 77
-20 95 l-15 33 3 -53 c1 -28 -1 -52 -5 -52 -14 0 -8 -31 7 -36 8 -4 15 -16 15
-28 0 -17 -2 -18 -10 -6 -5 8 -17 15 -27 15 -19 0 -19 1 -15 119 2 45 6 56 22
61 14 4 20 16 21 38 1 30 2 29 14 -13 7 -25 20 -108 30 -185 9 -77 23 -178 31
-225 8 -47 14 -110 15 -140 0 -30 4 -64 9 -75 l9 -20 0 20 c1 15 3 17 10 6 9
-15 5 -44 -12 -79 -9 -18 -7 -29 7 -52 13 -23 14 -30 4 -31 -10 0 -10 -2 -1
-6 9 -3 10 -10 4 -22 -10 -18 0 -45 15 -39 13 5 17 -43 5 -55 -15 -15 -14 -57
4 -91 8 -15 15 -36 16 -45 1 -9 5 4 10 29 5 25 7 60 4 78 -4 23 -3 32 4 27 6
-3 11 -18 11 -32 0 -15 2 -24 5 -21 10 10 7 149 -4 161 -11 14 8 87 22 87 5 0
8 -35 7 -77 -1 -43 -1 -82 0 -88 3 -21 19 32 19 66 1 19 7 43 14 53 13 17 14
17 30 -8 9 -14 17 -38 17 -53 0 -15 5 -35 10 -43 7 -11 10 -5 10 25 0 27 11
57 31 90 25 41 30 45 26 22 -2 -15 0 -30 4 -33 5 -3 9 -14 9 -25 0 -10 5 -19
10 -19 6 0 10 5 10 10 0 6 7 10 15 10 12 0 13 -4 5 -19 -12 -24 -13 -31 -1
-31 20 0 42 33 37 55 -4 14 0 28 10 36 13 11 14 9 9 -14 -6 -22 -4 -26 9 -21
17 7 22 -11 6 -21 -29 -18 -65 -192 -37 -182 7 2 13 28 15 60 4 78 22 73 20
-5 -1 -64 -9 -86 -41 -124 -11 -13 -14 -24 -9 -28 14 -9 81 72 90 109 6 20 14
30 28 30 24 0 22 -40 -3 -67 -9 -10 -13 -21 -10 -25 10 -9 36 27 43 59 4 15
13 33 20 39 20 16 31 -18 15 -43 -10 -16 -10 -19 0 -16 7 2 17 13 23 24 6 10
12 21 14 24 2 2 7 -2 13 -10 8 -13 11 -13 23 2 8 11 25 17 48 16 19 -1 40 2
47 6 7 4 49 14 94 22 102 18 230 28 202 15 -11 -5 -23 -7 -28 -4 -24 14 -335
-70 -344 -93 -3 -8 -9 -11 -14 -8 -11 6 -99 -27 -99 -38 0 -4 -8 -14 -17 -24
-17 -16 -29 -54 -17 -54 17 0 84 66 79 78 -3 9 0 12 9 9 8 -3 17 1 20 9 3 8
10 14 16 14 16 0 12 -31 -7 -52 -9 -10 -11 -18 -5 -18 6 0 17 7 24 15 40 48
43 50 46 32 2 -9 9 -14 18 -10 19 7 18 -11 -3 -28 -9 -8 -24 -27 -35 -44 -10
-16 -18 -26 -18 -21 0 5 -7 3 -15 -4 -12 -10 -15 -10 -15 3 0 21 -37 32 -55
17 -17 -14 -11 -32 8 -24 7 2 22 -4 32 -16 10 -11 25 -20 34 -20 14 -1 14 -2
-1 -11 -19 -11 -13 -39 8 -39 8 0 19 11 25 24 13 28 55 42 75 25 7 -6 21 -9
29 -5 8 3 15 2 15 -3 0 -5 -19 -17 -42 -27 -29 -12 -37 -19 -26 -21 10 -3 40
8 67 22 39 21 53 25 68 16 10 -6 13 -11 6 -11 -6 0 -13 -10 -15 -22 -2 -12
-10 -24 -18 -26 -13 -5 -13 -3 -1 12 8 9 11 19 8 22 -11 11 -39 -6 -44 -26 -3
-11 -13 -20 -22 -20 -9 0 -23 -5 -31 -11 -11 -7 -3 -9 30 -8 69 2 82 0 75 -11
-3 -5 -26 -10 -51 -10 -40 0 -45 -2 -39 -19 3 -12 1 -21 -7 -24 -7 -2 1 -2 17
1 17 2 33 9 36 14 3 5 19 8 34 6 26 -3 27 -5 13 -18 -42 -41 -88 -80 -88 -75
0 4 -5 3 -10 0 -19 -12 10 -34 48 -37 36 -3 36 -3 14 -16 -19 -11 -31 -11 -73
3 -41 14 -70 16 -150 10 -54 -4 -99 -11 -99 -16 0 -5 -9 -9 -20 -9 -12 0 -34
-7 -50 -15 -17 -9 -42 -13 -57 -10 -21 4 -23 3 -9 -3 18 -8 17 -11 -15 -33
-42 -28 -75 -66 -150 -169 -90 -124 -92 -129 -83 -296 6 -123 9 -144 23 -145
11 0 10 -3 -5 -9 -14 -6 -23 -21 -28 -47 -7 -45 -25 -75 -33 -55 -2 6 -11 12
-18 12 -7 0 -16 6 -19 13 -5 10 -7 9 -12 0 -3 -7 -10 -13 -16 -13 -7 0 -7 4 0
13 7 8 6 18 -4 31 -19 27 -19 60 1 52 17 -6 20 5 6 20 -13 13 -20 133 -9 140
5 3 0 15 -11 25 -12 11 -21 27 -20 37 0 14 2 13 9 -3 6 -17 9 -15 14 15 4 19
8 55 10 80 5 58 6 60 16 30 8 -25 8 -24 15 8 6 24 10 30 17 20 5 -8 6 2 3 27
-5 29 -4 36 4 25 8 -12 11 -12 17 4 4 10 2 26 -5 35 -6 9 -18 30 -26 46 l-14
30 -1 -50 c0 -27 -3 -60 -6 -72 l-6 -22 -18 21 c-10 12 -16 27 -14 33 3 6 -4
11 -15 11 -10 0 -17 -5 -15 -11 3 -6 1 -22 -4 -35 l-9 -24 -12 22 c-8 15 -9
33 -3 56 11 38 -1 71 -17 48 -6 -10 -13 -7 -29 15 l-21 28 -1 -37 c0 -21 4
-38 8 -38 5 0 14 -11 20 -25 15 -32 16 -159 2 -150 -6 4 -10 -10 -10 -34 0
-30 -4 -41 -15 -41 -18 0 -19 -12 -3 -28 8 -8 17 -8 30 -1 20 11 38 5 38 -13
0 -7 -5 -6 -14 1 -17 14 -31 -2 -22 -24 7 -20 -4 -19 -19 2 -8 11 -18 14 -31
8 -10 -4 -22 -7 -26 -7 -12 3 -10 -12 3 -25 9 -9 9 -20 0 -44 -8 -23 -8 -36
-1 -43 8 -8 9 -6 5 7 -4 9 -3 17 3 17 14 0 23 -70 12 -91 -6 -10 -7 -25 -3
-35 6 -15 7 -15 14 4 9 25 49 30 49 7 0 -9 -6 -12 -15 -9 -11 5 -15 -1 -15
-25 0 -35 7 -39 26 -14 8 11 13 13 14 6 0 -7 -9 -18 -20 -25 -25 -16 -27 -40
-2 -31 12 4 11 1 -6 -14 -22 -20 -22 -21 -2 -26 11 -3 18 -1 14 4 -3 5 -2 9 3
10 4 0 16 2 26 4 18 3 24 -11 6 -17 -7 -2 -3 -24 11 -61 12 -31 18 -61 15 -67
-4 -6 -2 -17 4 -24 6 -7 9 -27 8 -44 -2 -26 -6 -31 -22 -27 -11 3 -14 2 -7 -1
19 -9 15 -45 -4 -37 -12 4 -15 2 -12 -8 3 -8 11 -14 19 -14 8 -1 23 -6 34 -12
18 -11 19 -12 3 -18 -22 -9 -24 -35 -4 -35 9 0 14 -9 13 -20 -1 -11 -5 -20
-11 -20 -5 0 -1 -9 8 -19 10 -11 20 -40 23 -64 4 -39 1 -46 -16 -52 -12 -3
-21 -12 -21 -20 0 -7 -6 -15 -14 -18 -16 -6 -20 -97 -4 -97 4 0 8 -4 8 -10 0
-5 -15 -10 -32 -11 -18 0 -27 -3 -20 -6 11 -4 18 -33 7 -33 -3 0 -15 10 -27
22 -20 20 -22 20 -35 3 -7 -11 -13 -29 -13 -41 0 -34 -21 -41 -42 -14 -25 31
-34 18 -12 -18 9 -17 39 -41 66 -55 l49 -26 17 21 c9 11 30 32 46 47 15 14 34
37 41 51 15 29 133 150 146 150 4 0 22 13 39 30 31 31 74 40 83 18 3 -7 3 1 0
19 -4 24 -1 33 15 42 26 14 55 14 47 1 -3 -5 2 -10 12 -10 15 0 14 -4 -7 -20
-22 -17 -23 -22 -12 -39 16 -28 15 -31 -10 -31 -16 0 -19 -3 -11 -11 7 -7 20
-5 44 9 42 23 110 47 127 44 6 -2 12 7 12 19 0 18 4 20 26 16 19 -3 34 3 57
26 17 17 44 33 61 36 48 10 44 31 -6 32 l-43 0 50 18 c28 9 59 22 70 28 19 11
19 12 -6 18 -22 5 -25 11 -21 33 3 15 9 32 14 39 12 15 -11 41 -39 46 -24 5
-74 18 -93 24 -13 4 -12 6 3 14 28 16 20 31 -13 24 -37 -8 -40 8 -8 42 12 13
16 23 10 23 -7 0 -12 -4 -12 -10 0 -12 -78 -33 -101 -27 -11 3 -22 1 -25 -4
-8 -13 -51 33 -46 49 2 6 0 12 -6 12 -12 0 -74 139 -74 168 0 12 -4 25 -9 28
-12 7 -12 51 0 58 5 3 47 9 95 12 47 4 86 11 86 15 0 5 5 9 10 9 6 0 39 13 73
29 90 43 160 109 199 188 30 62 32 74 33 170 l0 103 25 0 c14 0 34 -7 44 -15
26 -20 89 -19 127 1 41 21 94 15 94 -10 0 -13 -11 -23 -35 -30 -58 -18 -74
-31 -63 -50 9 -16 11 -15 27 8 9 14 23 26 31 26 20 0 19 -10 -2 -26 -17 -13
-17 -15 0 -25 17 -10 16 -13 -13 -30 -25 -16 -30 -24 -24 -42 3 -12 3 -19 -1
-15 -12 11 -35 -11 -29 -27 3 -8 -4 -20 -15 -27 -25 -15 -29 -43 -5 -34 8 3
12 2 9 -4 -3 -6 -17 -10 -31 -10 -14 0 -24 -6 -24 -14 0 -9 8 -12 25 -9 23 5
23 4 12 -21 -7 -14 -16 -26 -20 -26 -5 0 -5 -5 -2 -10 10 -17 -15 -40 -42 -40
-21 0 -23 2 -13 15 16 20 3 40 -16 24 -15 -13 -10 -73 8 -96 7 -9 3 -16 -17
-23 -15 -6 -29 -9 -30 -8 -1 2 -8 12 -14 23 -9 15 -11 16 -7 3 3 -12 0 -18 -9
-18 -8 0 -15 -7 -15 -16 0 -9 6 -14 13 -11 8 3 19 2 26 -3 21 -12 -4 -46 -49
-67 -42 -19 -53 -43 -20 -43 30 0 26 -44 -5 -64 -25 -17 -26 -17 -19 9 7 27
-12 35 -33 14 -6 -6 -21 -9 -34 -7 -23 3 -23 4 14 42 35 36 49 76 27 76 -5 0
-10 -5 -10 -10 0 -20 -76 -107 -102 -117 -15 -6 -29 -9 -32 -6 -8 8 21 33 38
33 9 0 16 5 16 10 0 14 -11 12 -45 -8 -16 -10 -43 -22 -58 -26 -39 -9 -24 -26
24 -26 21 0 39 -4 39 -10 0 -5 14 -7 33 -4 30 5 31 5 13 -10 -19 -15 -19 -16
8 -16 24 0 27 -3 23 -22 -4 -15 2 -28 21 -45 26 -22 27 -23 5 -23 -13 0 -23
-6 -23 -14 0 -9 15 -15 46 -18 51 -4 62 3 39 26 -15 14 -13 15 17 10 18 -3 39
-8 46 -10 7 -2 10 0 7 6 -3 5 10 12 30 16 19 3 33 10 30 14 -8 13 11 21 30 14
18 -7 16 -50 -2 -47 -7 2 -10 -4 -7 -12 3 -7 15 -15 27 -17 19 -3 16 -7 -20
-30 -44 -29 -83 -66 -83 -80 0 -4 15 -8 33 -9 31 -1 30 -1 -15 -17 -26 -9 -50
-20 -54 -24 -4 -5 40 -9 97 -9 l104 -1 -64 -10 c-58 -8 -115 -27 -83 -28 18 0
15 -27 -4 -38 -37 -21 -2 -32 99 -32 101 0 324 -26 465 -54 159 -31 63 -34
-113 -3 -49 8 -117 18 -150 21 -33 3 -108 11 -168 17 -59 6 -115 8 -124 5 -38
-15 23 -33 132 -40 282 -18 485 -47 485 -68 0 -14 -106 -8 -138 7 -18 9 -92
22 -174 30 -79 7 -173 17 -210 21 -48 5 -68 3 -68 -5 0 -6 11 -11 24 -11 13 0
98 -14 188 -31 89 -16 193 -35 231 -41 37 -6 67 -14 67 -18 0 -4 16 -11 35
-14 19 -4 38 -13 42 -20 5 -7 35 -28 68 -45 33 -18 51 -29 40 -25 -36 12 -90
24 -109 24 -15 0 -17 -5 -12 -27 4 -16 8 -36 10 -46 3 -22 39 -62 92 -102 l39
-30 -44 -5 -45 -5 -2 -65 c-1 -36 -5 -91 -9 -122 -6 -48 -11 -57 -29 -60 -12
-2 -22 -11 -24 -24 -2 -12 -16 -34 -33 -49 -16 -16 -29 -36 -29 -45 0 -9 -15
-27 -32 -40 -18 -13 -36 -29 -40 -36 -14 -22 -131 -71 -248 -104 -141 -40
-180 -37 -297 21 -171 85 -275 215 -309 385 -4 22 -36 64 -49 64 -20 0 -65
-26 -58 -33 3 -4 -8 -10 -25 -13 -18 -4 -32 -10 -32 -15 0 -5 -9 -9 -20 -9
-17 0 -61 -15 -135 -45 -11 -4 -23 -7 -27 -7 -5 1 -8 -4 -8 -12 0 -18 -47 -49
-61 -40 -6 3 -32 -3 -58 -14 -84 -38 -184 -62 -248 -61 -33 1 -65 -1 -70 -4
-6 -4 -36 -2 -68 3 -44 7 -65 6 -92 -5 -44 -18 -44 -18 -36 1 5 13 0 14 -31 8
-33 -6 -38 -4 -43 15 -7 27 -21 27 -51 -1 l-24 -23 6 22 c5 16 2 23 -15 28
-46 15 -122 -94 -191 -278 -17 -45 -37 -98 -44 -117 -7 -19 -13 -29 -14 -21 0
17 46 163 67 209 8 18 13 40 11 50 -1 9 19 61 46 114 26 53 46 105 44 115 -6
30 -44 26 -101 -10 -69 -44 -110 -93 -301 -354 -28 -37 -51 -62 -54 -55 -2 6
5 24 16 39 49 70 102 156 102 164 0 19 -22 8 -53 -27 -18 -20 -81 -105 -140
-188 -120 -167 -121 -169 -110 -141 30 73 120 220 241 395 77 112 79 123 16
100 -29 -11 -161 -142 -226 -223 -27 -35 -38 -44 -33 -27 4 13 14 31 22 39 14
14 75 92 121 154 12 18 22 38 22 47 0 19 -94 63 -118 56 -10 -4 -55 -43 -101
-87 -98 -97 -93 -77 9 34 40 43 69 81 66 85 -9 8 -96 -37 -113 -58 -11 -13
-12 -13 -13 3 0 9 4 17 9 17 12 0 65 79 58 86 -17 17 -111 -37 -275 -158 -123
-91 -352 -307 -457 -432 -45 -53 -58 -52 -22 2 17 26 104 119 192 208 155 155
273 254 422 355 39 27 75 53 78 59 9 15 -14 40 -37 40 -24 0 -135 -46 -170
-71 -27 -20 -112 -63 -186 -95 -23 -10 -42 -21 -42 -26 0 -4 -6 -8 -13 -8 -11
0 -154 -103 -167 -120 -10 -14 -182 -160 -187 -160 -4 0 4 12 18 27 188 213
376 361 601 474 104 52 110 56 98 77 -6 10 -15 30 -20 46 -9 24 -14 27 -38 21
-66 -16 -336 -186 -437 -276 -105 -93 -137 -119 -145 -119 -17 0 76 84 210
192 114 91 233 172 318 218 66 35 68 38 56 112 -9 50 -21 50 -192 -7 -211 -70
-198 -57 40 44 76 32 129 60 132 70 2 9 10 46 17 84 l13 67 -31 33 c-17 17
-38 46 -47 64 -9 18 -36 46 -61 63 -25 17 -45 39 -45 48 0 9 -7 26 -15 36 -8
11 -15 27 -15 35 -1 9 -19 34 -41 56 -23 22 -49 58 -59 80 -9 22 -31 55 -49
74 -25 27 -29 36 -19 48 23 28 16 56 -23 92 -26 25 -42 53 -54 93 -9 32 -20
60 -25 63 -5 3 -14 22 -21 43 -6 20 -22 50 -35 65 -16 19 -24 41 -24 68 0 28
-4 39 -15 39 -8 0 -15 6 -16 13 -2 38 -7 64 -14 80 -4 10 -3 17 4 17 6 0 11
-8 11 -18 0 -9 11 -29 25 -44 14 -15 25 -39 25 -53 0 -29 0 -29 35 -13 14 6
26 20 27 32 6 90 6 116 -3 151 -36 140 -35 143 36 221 l33 36 -21 25 c-12 14
-34 31 -49 39 -37 19 -98 85 -98 107 0 10 -4 26 -9 36 -6 10 -14 68 -20 130
-8 92 -13 117 -30 135 -12 12 -21 35 -21 51 0 21 -14 41 -55 82 -31 29 -60 53
-64 53 -5 0 -11 12 -14 28 -3 15 -23 59 -45 97 -21 39 -69 129 -106 202 -62
121 -69 139 -75 215 -4 46 -4 95 0 110 11 42 59 84 118 103 132 43 318 -9 565
-159 42 -25 78 -46 81 -46 3 0 18 -12 34 -26 16 -14 69 -49 119 -79 49 -29 98
-60 108 -69 47 -39 134 -97 184 -123 30 -15 57 -31 58 -35 2 -5 9 -8 15 -8 7
0 27 -13 44 -29 18 -16 45 -34 60 -40 36 -15 71 -85 53 -106 -7 -8 -17 -12
-22 -9 -5 3 -12 -3 -15 -15 -6 -24 -23 -28 -23 -6 0 8 -4 15 -10 15 -21 0 -10
-65 16 -93 24 -26 28 -27 47 -14 13 8 30 11 42 7 27 -10 45 -2 45 20 0 10 16
34 35 53 34 34 47 79 31 105 -11 17 18 26 43 12 12 -6 21 -17 21 -25 0 -9 6
-12 15 -9 17 7 20 41 5 64 -8 13 -10 12 -10 -2 0 -21 -18 -23 -42 -4 -20 14
-24 36 -8 36 15 0 12 27 -4 33 -8 3 -26 -3 -41 -15 -31 -24 -43 -17 -27 16 8
19 22 25 69 32 l58 9 2 275 c1 216 -1 270 -10 250 -17 -36 -24 -39 -98 -37
-65 1 -68 0 -103 -38 -20 -21 -36 -42 -36 -47 0 -5 11 -21 24 -35 14 -15 23
-30 21 -33 -3 -4 -25 -13 -50 -20 -42 -12 -49 -19 -46 -45 0 -8 -84 -12 -146
-6 -21 2 -15 37 12 69 14 17 25 39 25 51 0 12 6 21 15 21 9 0 15 9 15 21 0 51
66 119 115 119 21 0 72 27 95 50 15 15 75 29 84 20 6 -6 17 -10 25 -10 8 0 25
-9 37 -21 l22 -21 6 29 c3 15 9 55 13 88 14 107 15 7 4 -225z m1274 125 c22
-8 56 -14 75 -15 22 0 46 -10 65 -26 28 -24 29 -26 11 -37 -10 -7 -31 -24 -46
-39 -15 -16 -31 -28 -36 -28 -11 0 -34 -48 -34 -72 0 -19 -28 -34 -85 -47 -21
-5 -29 -12 -27 -24 2 -10 -4 -17 -13 -17 -8 0 -15 7 -15 16 0 20 -28 43 -52
44 -10 0 -18 -6 -18 -14 0 -8 -6 -16 -12 -18 -20 -8 -38 2 -38 20 0 23 -23 87
-37 103 -22 27 -19 51 6 55 13 3 36 11 50 19 42 23 85 43 104 49 11 3 21 15
24 26 6 24 24 25 78 5z m-115 -314 c0 -12 -29 -23 -41 -15 -5 3 -7 10 -4 15 8
12 45 12 45 0z m-184 -132 c1 -18 -4 -42 -12 -53 -7 -11 -11 -30 -8 -43 8 -32
-9 -29 -45 8 -36 36 -42 78 -11 86 12 3 20 14 20 27 0 32 10 38 34 23 13 -9
21 -26 22 -48z m-196 41 c0 -5 -4 -10 -10 -10 -5 0 -10 5 -10 10 0 6 5 10 10
10 6 0 10 -4 10 -10z m-575 -45 c0 -10 -5 -20 -11 -22 -13 -4 -27 24 -18 38 9
15 29 4 29 -16z m587 -131 c-1 -66 -16 -147 -29 -152 -20 -6 -35 48 -29 98 4
25 7 56 9 70 1 14 6 31 11 38 14 23 38 -11 38 -54z m-462 21 c0 -26 -14 -33
-25 -15 -9 14 1 40 15 40 5 0 10 -11 10 -25z m-518 -29 c5 -8 8 -7 8 2 0 7 5
10 10 7 17 -11 -6 -32 -32 -30 -13 1 -22 8 -20 14 1 6 -2 11 -8 11 -5 0 -10 5
-10 11 0 13 42 1 52 -15z m2047 -20 c14 -15 13 -16 -10 -16 -26 0 -89 26 -89
37 0 12 84 -6 99 -21z m-1495 -10 c23 -20 36 -56 21 -56 -11 0 -52 45 -58 63
-9 24 7 21 37 -7z m-305 0 c9 -10 7 -16 -5 -27 -13 -10 -17 -10 -24 1 -9 14
-3 40 10 40 4 0 13 -6 19 -14z m1902 -18 c22 -6 39 -15 39 -20 0 -4 -43 -8
-97 -8 -53 0 -94 3 -90 6 8 8 79 33 96 34 7 0 31 -5 52 -12z m-851 -32 c0 -16
-18 -31 -27 -22 -8 8 5 36 17 36 5 0 10 -6 10 -14z m497 -53 c35 -17 92 -16
112 1 9 7 37 16 62 19 39 5 51 2 79 -18 18 -13 46 -27 62 -30 34 -8 42 -22 30
-56 -12 -33 -4 -59 18 -59 24 0 29 -9 23 -42 -5 -24 -8 -26 -37 -21 -17 3 -36
12 -42 19 -6 8 -23 14 -36 14 -14 0 -31 7 -38 15 -7 8 -25 15 -39 15 -15 0
-36 7 -47 15 -23 17 -85 20 -101 4 -14 -14 -73 9 -73 29 0 16 -48 8 -92 -14
-37 -19 -39 -18 -27 12 11 32 5 42 -16 24 -8 -7 -15 -25 -15 -40 0 -16 -7 -30
-15 -34 -12 -4 -15 3 -15 34 0 22 5 40 10 40 21 0 9 30 -15 36 -14 3 -25 8
-25 10 0 8 39 43 59 53 20 11 40 -2 21 -14 -5 -3 -10 -10 -10 -15 0 -5 20 4
45 21 25 17 49 28 54 24 6 -3 16 1 23 9 11 12 13 10 16 -13 2 -17 12 -30 29
-38z m-1537 47 c0 -5 -7 -7 -15 -4 -8 4 -15 8 -15 10 0 2 7 4 15 4 8 0 15 -4
15 -10z m1121 -4 c-6 -7 -13 -42 -16 -77 -6 -70 -12 -82 -26 -56 -6 9 -14 15
-20 12 -5 -4 -9 0 -9 8 0 8 10 17 21 20 17 5 20 11 17 34 -3 15 -9 37 -13 47
-7 16 -5 18 13 14 12 -4 25 -2 28 3 3 5 8 9 11 9 3 0 0 -6 -6 -14z m151 -34
c5 -5 2 -21 -7 -38 -8 -16 -15 -35 -15 -41 0 -7 -4 -13 -9 -13 -13 0 -20 23
-14 52 5 28 -12 47 -29 30 -8 -8 -15 -29 -17 -56 -1 -5 -7 -3 -15 3 -10 8 -11
19 -3 44 10 32 13 33 55 31 25 -2 49 -7 54 -12z m-971 -64 c0 -7 0 -32 -1 -54
-1 -29 3 -43 14 -47 8 -3 18 -22 22 -42 5 -31 2 -41 -19 -63 -19 -19 -25 -34
-20 -50 3 -12 9 -22 13 -22 5 0 14 -26 20 -57 13 -64 25 -84 45 -77 8 3 17 -6
24 -23 10 -25 11 -23 6 17 -5 37 -4 43 7 32 9 -9 12 -35 10 -76 -2 -50 1 -65
13 -70 8 -3 15 -17 15 -30 0 -27 30 -95 43 -96 4 0 7 7 7 15 0 8 5 15 11 15 6
0 8 -7 5 -16 -3 -9 -6 -20 -6 -25 0 -6 -8 -9 -17 -7 -16 3 -18 -5 -15 -63 3
-51 1 -67 -11 -72 -10 -4 -20 10 -36 47 -11 28 -21 59 -21 68 0 9 -4 20 -10
23 -5 3 -10 16 -10 27 0 12 -11 40 -25 63 -13 23 -22 45 -18 48 3 4 -6 11 -21
16 -18 8 -26 18 -26 36 0 20 -5 24 -22 22 -19 -2 -25 5 -35 43 -6 25 -15 56
-19 69 -5 16 -4 22 3 18 7 -4 10 13 9 49 -1 44 3 58 18 70 17 12 18 18 7 54
-18 60 1 170 29 170 6 0 10 -6 11 -12z m-567 -23 c-6 -16 -34 -21 -34 -7 0 13
11 22 26 22 8 0 11 -6 8 -15z m806 -2 c0 -5 -4 -14 -9 -21 -7 -11 -9 -11 -14
1 -3 8 -3 18 0 21 9 8 23 7 23 -1z m-760 -12 c0 -6 -4 -13 -10 -16 -5 -3 -10
1 -10 9 0 9 5 16 10 16 6 0 10 -4 10 -9z m1443 -31 c-3 -11 -9 -23 -14 -26
-10 -6 -12 29 -2 39 13 13 21 7 16 -13z m-678 -20 c-4 -12 -9 -19 -12 -17 -3
3 -2 15 2 27 4 12 9 19 12 17 3 -3 2 -15 -2 -27z m122 8 c-3 -8 -6 -5 -6 6 -1
11 2 17 5 13 3 -3 4 -12 1 -19z m803 7 c-7 -8 -17 -15 -22 -15 -6 0 -5 7 2 15
7 8 17 15 22 15 6 0 5 -7 -2 -15z m-415 -5 c3 -5 -1 -10 -9 -10 -9 0 -16 5
-16 10 0 6 4 10 9 10 6 0 13 -4 16 -10z m-375 -50 c0 -5 7 -16 16 -25 9 -8 18
-35 21 -58 3 -23 10 -47 15 -54 15 -18 22 -113 9 -113 -6 0 -11 11 -11 25 0
14 -4 25 -9 25 -13 0 -20 -64 -8 -71 5 -4 7 -23 3 -45 -5 -30 -4 -35 4 -24 9
11 10 1 6 -40 -4 -30 -9 -104 -12 -165 -3 -61 -9 -112 -15 -114 -6 -2 -14 -14
-19 -27 -12 -29 -30 -32 -30 -3 0 11 -4 18 -9 15 -12 -8 -17 9 -20 63 -2 24
-7 55 -12 69 -8 20 -12 22 -24 12 -11 -9 -15 -9 -16 -1 -1 6 -2 17 -3 24 -1 6
5 20 13 30 14 16 13 18 -7 24 -27 7 -29 23 -3 23 11 0 23 5 26 10 12 20 22 10
18 -17 -4 -21 -2 -24 6 -13 12 17 16 14 35 -30 19 -45 20 -18 1 36 -19 55 -22
168 -5 189 10 12 11 43 6 133 -3 64 -11 121 -16 126 -6 6 -10 16 -10 23 0 10
6 10 25 -3 14 -9 25 -20 25 -24z m393 -18 c7 -9 7 -16 0 -23 -13 -13 -38 45
-27 63 6 10 10 8 12 -7 2 -11 9 -26 15 -33z m-513 -5 c13 -39 13 -42 -4 -28
-11 9 -15 4 -20 -29 -4 -23 -11 -38 -16 -35 -10 6 -14 107 -5 117 14 13 35 1
45 -25z m-143 -2 c9 -25 -4 -29 -17 -6 -7 15 -7 21 0 21 6 0 13 -7 17 -15z
m-34 -26 c8 -29 -3 -56 -14 -37 -11 17 -11 58 0 58 5 0 11 -9 14 -21z m1147
-11 c0 -18 -2 -20 -9 -8 -6 8 -7 18 -5 22 9 14 14 9 14 -14z m-640 -54 c0 -28
-19 -42 -31 -23 -5 8 -9 29 -9 48 0 33 0 34 20 16 11 -10 20 -28 20 -41z m690
16 c-5 -22 -8 -27 -9 -13 -1 21 9 56 14 51 2 -2 0 -19 -5 -38z m-90 22 c0 -5
-7 -17 -15 -28 -14 -19 -14 -19 -15 2 0 11 3 24 7 27 9 10 23 9 23 -1z m-1065
-11 c3 -5 1 -12 -5 -16 -5 -3 -10 1 -10 9 0 18 6 21 15 7z m1270 -45 c-16 -7
-32 -11 -35 -9 -8 7 24 23 45 22 15 0 13 -3 -10 -13z m-1140 -6 c4 -6 3 -30
-1 -53 -5 -33 -8 -38 -14 -22 -7 19 -8 18 -12 -5 -4 -17 -6 -12 -7 17 -2 61
16 93 34 63z m502 -32 c-3 -8 -6 -5 -6 6 -1 11 2 17 5 13 3 -3 4 -12 1 -19z
m-636 -1 c-1 -12 -15 -9 -19 4 -3 6 1 10 8 8 6 -3 11 -8 11 -12z m542 4 c9 -1
9 -52 1 -103 -4 -24 -12 -38 -21 -38 -11 0 -13 5 -8 18 5 9 10 33 12 52 l4 35
-18 -35 c-15 -29 -18 -31 -21 -15 -2 11 -8 24 -13 30 -24 25 -2 63 34 59 12
-1 25 -3 30 -3z m820 -15 c24 2 37 -1 37 -10 0 -20 -22 -37 -35 -26 -14 12
-65 -9 -65 -27 0 -7 -5 -13 -10 -13 -7 0 -8 14 -4 38 9 48 13 55 27 44 7 -5
29 -8 50 -6z m-1203 -27 c0 -6 -4 -7 -10 -4 -5 3 -10 11 -10 16 0 6 5 7 10 4
6 -3 10 -11 10 -16z m-28 -84 c2 -22 0 -34 -6 -32 -12 4 -16 67 -5 67 4 0 9
-16 11 -35z m68 -1 c0 -14 -4 -23 -10 -19 -5 3 -10 15 -10 26 0 10 5 19 10 19
6 0 10 -12 10 -26z m1180 -15 c0 -34 -49 -69 -51 -36 0 9 -2 9 -6 -1 -8 -21
-21 -4 -15 23 4 21 10 25 38 25 19 0 34 -5 34 -11z m-1298 -55 c14 -30 14 -41
3 -82 -10 -34 -13 -40 -14 -21 -1 37 -22 93 -38 102 -7 4 -13 16 -13 26 0 32
44 14 62 -25z m83 -11 c3 -10 -1 -13 -12 -11 -9 2 -18 8 -20 14 -5 16 25 13
32 -3z m1288 -140 c-7 -2 -19 -2 -25 0 -7 3 -2 5 12 5 14 0 19 -2 13 -5z
m-1345 -55 c-2 -7 4 -12 14 -13 16 0 58 -41 58 -57 0 -19 -38 -7 -45 15 l-7
22 -8 -25 c-7 -21 -8 -22 -9 -4 -1 11 -6 25 -12 31 -7 7 -9 19 -6 27 7 19 18
21 15 4z m72 2 c0 -5 -2 -10 -4 -10 -3 0 -8 5 -11 10 -3 6 -1 10 4 10 6 0 11
-4 11 -10z m1390 -7 c0 -5 -5 -15 -10 -23 -7 -12 -9 -10 -7 8 1 19 17 33 17
15z m90 -10 c-1 -18 -19 -35 -29 -28 -9 5 -9 10 0 21 12 15 29 19 29 7z
m-1533 -105 c-3 -7 -5 -2 -5 12 0 14 2 19 5 13 2 -7 2 -19 0 -25z m1419 26
c15 -4 23 -16 26 -35 4 -25 1 -30 -21 -35 -14 -3 -36 -10 -49 -15 -29 -11 -62
-12 -62 0 0 5 20 14 44 20 51 13 62 24 41 41 -29 24 -19 35 21 24z m-1376 -47
c0 -5 -4 -5 -10 -2 -5 3 -10 14 -10 23 0 15 2 15 10 2 5 -8 10 -19 10 -23z
m1330 3 c0 -5 -4 -10 -10 -10 -5 0 -10 5 -10 10 0 6 5 10 10 10 6 0 10 -4 10
-10z m-292 -74 c35 -40 47 -94 37 -169 -10 -70 -34 -114 -90 -166 -68 -63
-124 -85 -194 -76 -56 7 -126 40 -116 55 3 4 -2 10 -10 13 -14 6 -15 62 -1 85
3 6 -6 22 -20 35 -31 29 -28 63 8 97 28 25 38 25 38 -1 0 -19 31 -61 36 -49 1
3 21 -17 45 -43 33 -38 47 -48 65 -44 13 2 21 0 18 -4 -8 -13 7 -10 35 5 14 8
30 12 37 9 21 -8 59 68 59 117 0 25 -4 48 -8 51 -12 9 -26 77 -20 99 8 31 47
25 81 -14z m-761 -128 c-3 -8 -6 -5 -6 6 -1 11 2 17 5 13 3 -3 4 -12 1 -19z
m83 -89 c0 -6 -4 -7 -10 -4 -5 3 -10 11 -10 16 0 6 5 7 10 4 6 -3 10 -11 10
-16z m1010 -169 c0 -5 -5 -10 -11 -10 -5 0 -7 5 -4 10 3 6 8 10 11 10 2 0 4
-4 4 -10z m-1140 -56 c0 -8 -5 -12 -10 -9 -6 4 -8 11 -5 16 9 14 15 11 15 -7z
m20 -35 c0 7 4 10 10 6 5 -3 6 -12 3 -21 -3 -9 4 -24 16 -35 24 -22 28 -54 8
-62 -10 -4 -12 3 -9 23 2 15 -1 31 -8 35 -9 5 -10 1 -5 -14 5 -16 3 -20 -9
-15 -9 3 -13 10 -10 15 3 5 -2 9 -10 9 -9 0 -16 5 -16 10 0 6 5 10 12 10 9 0
9 3 0 12 -7 7 -12 18 -12 26 0 12 3 12 15 2 11 -9 15 -9 15 -1z m70 -219 c0
-5 -4 -10 -10 -10 -5 0 -10 5 -10 10 0 6 5 10 10 10 6 0 10 -4 10 -10z m1017
-16 c-3 -3 -12 -4 -19 -1 -8 3 -5 6 6 6 11 1 17 -2 13 -5z m-61 -119 c-22 -17
-46 -20 -46 -6 0 11 18 19 45 20 20 0 20 0 1 -14z m-226 -5 c0 -5 -2 -10 -4
-10 -3 0 -8 5 -11 10 -3 6 -1 10 4 10 6 0 11 -4 11 -10z m480 -150 c-14 -4
-34 -8 -45 -8 -16 0 -15 2 5 8 14 4 34 8 45 8 16 0 15 -2 -5 -8z m-788 -50
c22 0 22 -3 2 -41 -16 -31 -37 -34 -42 -6 -2 10 5 17 20 20 20 4 20 4 -4 6
-16 0 -28 7 -28 14 0 20 12 29 24 17 5 -5 18 -10 28 -10z m-352 -130 c0 -11
-2 -20 -4 -20 -2 0 -6 9 -9 20 -3 11 -1 20 4 20 5 0 9 -9 9 -20z m420 -8 c0
-4 -9 -13 -20 -20 -16 -10 -20 -10 -20 1 0 8 3 17 7 20 9 9 33 9 33 -1z
m-2836 -1117 c-14 -19 -29 -35 -33 -35 -3 -1 -22 -23 -41 -50 -40 -56 -59 -66
-34 -18 15 29 118 138 130 138 3 0 -7 -16 -22 -35z m906 25 c0 -5 -5 -10 -11
-10 -5 0 -7 5 -4 10 3 6 8 10 11 10 2 0 4 -4 4 -10z m191 -91 c-5 -13 -10 -19
-10 -12 -1 15 10 45 15 40 3 -2 0 -15 -5 -28z m-324 -117 c-10 -10 -17 -25
-17 -33 0 -9 -7 -24 -16 -35 -15 -18 -15 -18 -9 10 6 30 45 89 53 81 3 -3 -2
-13 -11 -23z m98 -129 c-24 -58 -68 -129 -72 -117 -4 13 55 136 71 146 17 12
17 10 1 -29z m17 -115 c-7 -7 -12 -8 -12 -2 0 14 12 26 19 19 2 -3 -1 -11 -7
-17z"/>
<path d="M1406 4121 c-17 -7 -14 -13 31 -60 45 -47 53 -51 72 -42 29 16 26 31
-5 31 -23 0 -25 3 -19 30 6 26 3 31 -20 40 -30 11 -33 11 -59 1z"/>
<path d="M1860 3980 c0 -11 4 -20 10 -20 5 0 14 9 20 20 9 17 8 20 -10 20 -13
0 -20 -7 -20 -20z"/>
<path d="M2930 3991 c0 -5 -9 -11 -20 -14 -21 -5 -27 -31 -10 -42 6 -3 10 1
10 9 0 19 11 21 28 4 9 -9 12 -5 12 20 0 18 -4 32 -10 32 -5 0 -10 -4 -10 -9z"/>
<path d="M1917 3963 c-13 -3 -15 -11 -11 -30 6 -22 4 -24 -15 -18 -24 7 -27
-3 -8 -29 18 -25 47 -11 47 24 0 16 6 30 13 33 18 7 -4 24 -26 20z"/>
<path d="M1570 3951 c0 -11 29 -35 35 -29 10 9 -7 38 -21 38 -8 0 -14 -4 -14
-9z"/>
<path d="M2023 3924 c-3 -8 -1 -20 6 -27 8 -8 11 -4 11 16 0 30 -7 35 -17 11z"/>
<path d="M1825 3880 c3 -5 8 -10 11 -10 2 0 4 5 4 10 0 6 -5 10 -11 10 -5 0
-7 -4 -4 -10z"/>
<path d="M1900 3846 c0 -9 -12 -13 -32 -14 -53 0 -78 -12 -78 -38 0 -30 20
-42 35 -21 17 23 21 21 34 -14 9 -26 13 -29 31 -19 16 9 20 8 20 -5 0 -8 6
-15 14 -15 16 0 26 -21 26 -56 0 -13 5 -24 10 -24 6 0 10 9 10 21 0 15 5 19
15 15 8 -3 15 -4 15 -3 -10 49 -31 101 -39 99 -7 -1 -9 7 -5 22 4 17 0 30 -15
45 -24 24 -41 27 -41 7z m30 -71 c0 -8 -4 -15 -10 -15 -5 0 -10 7 -10 15 0 8
5 15 10 15 6 0 10 -7 10 -15z"/>
<path d="M3264 3836 c-10 -27 2 -43 14 -19 8 14 9 24 2 28 -6 3 -13 -1 -16 -9z"/>
<path d="M2930 3825 c7 -8 17 -12 22 -9 6 4 5 10 -3 15 -22 14 -33 10 -19 -6z"/>
<path d="M2091 3764 c0 -11 3 -14 6 -6 3 7 2 16 -1 19 -3 4 -6 -2 -5 -13z"/>
<path d="M3273 3759 c-7 -7 -13 -27 -13 -43 0 -28 1 -29 16 -14 9 8 14 27 12
42 -2 22 -5 25 -15 15z"/>
<path d="M1750 3747 c0 -18 38 -62 46 -54 7 7 -27 67 -38 67 -4 0 -8 -6 -8
-13z"/>
<path d="M3211 3744 c0 -11 3 -14 6 -6 3 7 2 16 -1 19 -3 4 -6 -2 -5 -13z"/>
<path d="M1692 3724 c2 -16 11 -30 24 -34 20 -8 20 -7 5 26 -19 40 -34 44 -29
8z"/>
<path d="M3232 3725 c0 -16 2 -22 5 -12 2 9 2 23 0 30 -3 6 -5 -1 -5 -18z"/>
<path d="M2082 3720 c0 -14 2 -19 5 -12 2 6 2 18 0 25 -3 6 -5 1 -5 -13z"/>
<path d="M3167 3726 c-4 -10 -5 -21 -2 -24 9 -9 17 6 13 25 -3 17 -4 17 -11
-1z"/>
<path d="M3316 3700 c-14 -47 -40 -105 -55 -123 -10 -12 -11 -21 -4 -28 8 -8
14 0 23 28 7 21 21 55 32 76 11 21 18 46 16 55 -3 13 -6 10 -12 -8z"/>
<path d="M1846 3701 c-6 -10 20 -67 34 -76 9 -5 5 37 -6 73 -4 14 -20 16 -28
3z"/>
<path d="M3190 3678 c0 -15 -3 -33 -6 -42 -10 -25 12 -19 23 7 8 17 7 28 -3
42 -13 18 -14 17 -14 -7z"/>
<path d="M1650 3670 c6 -11 20 -20 30 -20 30 0 24 17 -10 29 -28 9 -29 9 -20
-9z"/>
<path d="M1790 3672 c0 -5 7 -15 15 -22 8 -7 15 -8 15 -2 0 5 -7 15 -15 22 -8
7 -15 8 -15 2z"/>
<path d="M3145 3663 c-4 -13 -11 -20 -16 -17 -5 3 -9 -11 -9 -31 0 -36 19 -42
21 -7 1 10 4 7 8 -8 10 -38 18 -11 10 40 -5 37 -7 41 -14 23z"/>
<path d="M2131 3631 c-1 -27 2 -32 11 -23 8 8 8 17 0 34 -10 22 -11 21 -11
-11z"/>
<path d="M3330 3636 c-5 -15 -15 -36 -20 -47 -6 -10 -7 -19 -2 -19 11 0 46 79
38 87 -3 3 -10 -6 -16 -21z"/>
<path d="M3235 3637 c-4 -10 -5 -21 -1 -24 10 -10 18 4 13 24 -4 17 -4 17 -12
0z"/>
<path d="M1745 3631 c-7 -12 12 -24 25 -16 11 7 4 25 -10 25 -5 0 -11 -4 -15
-9z"/>
<path d="M1686 3615 c4 -8 11 -15 16 -15 6 0 5 6 -2 15 -7 8 -14 15 -16 15 -2
0 -1 -7 2 -15z"/>
<path d="M2000 3578 c0 -41 5 -61 20 -78 19 -21 20 -22 20 -4 0 11 -5 25 -11
31 -6 6 -13 30 -15 53 -6 63 -14 62 -14 -2z"/>
<path d="M1585 3610 c3 -5 8 -10 11 -10 2 0 4 5 4 10 0 6 -5 10 -11 10 -5 0
-7 -4 -4 -10z"/>
<path d="M1630 3590 c10 -19 40 -28 40 -12 0 13 -23 32 -37 32 -11 0 -11 -5
-3 -20z"/>
<path d="M1790 3601 c0 -5 7 -11 15 -15 8 -3 15 -12 15 -21 0 -8 5 -15 10 -15
15 0 12 27 -6 44 -17 18 -34 21 -34 7z"/>
<path d="M1891 3570 c0 -14 4 -32 9 -40 8 -12 10 -12 9 5 0 11 -4 29 -9 40 -8
18 -9 18 -9 -5z"/>
<path d="M3210 3579 c0 -5 -4 -8 -9 -5 -4 3 -17 -26 -28 -64 -11 -38 -17 -68
-13 -65 4 3 12 24 18 48 7 24 21 56 32 70 12 15 17 27 11 27 -6 0 -11 -5 -11
-11z"/>
<path d="M1521 3554 c0 -11 3 -14 6 -6 3 7 2 16 -1 19 -3 4 -6 -2 -5 -13z"/>
<path d="M3285 3514 c-23 -55 -19 -59 25 -24 34 27 38 33 26 46 -23 22 -35 17
-51 -22z"/>
<path d="M3364 3507 c-56 -46 -85 -81 -59 -71 11 5 13 2 8 -12 -4 -12 -3 -15
5 -10 16 10 15 1 -3 -34 -17 -33 -7 -45 26 -35 15 5 19 4 15 -4 -9 -14 66 -5
103 13 22 10 39 56 20 56 -20 0 -37 -13 -33 -25 3 -8 -5 -18 -18 -25 -21 -10
-21 -10 -5 3 9 8 15 21 12 29 -4 11 5 20 32 31 37 14 39 14 52 -7 15 -25 81
-32 81 -8 0 8 -9 12 -22 10 -17 -2 -22 1 -20 15 2 10 -3 17 -13 17 -8 0 -15 4
-15 10 0 5 -7 7 -15 4 -8 -4 -15 -2 -15 4 0 6 6 12 13 15 16 6 -23 38 -40 32
-19 -7 -43 5 -43 21 0 21 -10 17 -66 -29z"/>
<path d="M2110 3516 c0 -7 8 -20 17 -27 15 -12 16 -12 10 4 -4 10 -7 23 -7 28
0 5 -4 9 -10 9 -5 0 -10 -6 -10 -14z"/>
<path d="M2890 3464 c0 -14 4 -23 10 -19 6 3 10 15 10 26 0 10 -4 19 -10 19
-5 0 -10 -12 -10 -26z"/>
<path d="M2110 3415 c0 -16 5 -47 11 -68 14 -52 3 -60 -17 -12 -12 29 -18 35
-25 24 -6 -9 -7 -3 -3 18 5 26 2 33 -16 43 -21 11 -22 11 -16 -11 4 -13 9 -55
13 -92 5 -53 3 -71 -8 -78 -11 -6 -11 -11 -2 -20 9 -9 16 -9 25 -1 10 8 13 5
13 -13 0 -19 -3 -21 -19 -13 -17 9 -18 7 -14 -24 3 -18 8 -41 13 -50 5 -13 3
-18 -10 -18 -13 0 -16 -5 -10 -22 4 -13 8 -41 9 -63 3 -43 21 -85 42 -98 8 -4
14 -14 14 -21 0 -7 11 -18 24 -24 20 -9 25 -8 30 4 10 27 7 44 -9 44 -18 0
-20 17 -2 23 9 3 9 7 1 18 -18 22 -28 79 -13 79 8 0 10 14 6 47 -3 26 -2 54 3
62 16 35 41 123 36 129 -3 3 -6 -2 -6 -12 0 -40 -19 -1 -26 52 -3 31 -15 73
-25 92 l-18 35 -1 -30z"/>
<path d="M1797 3404 c-13 -13 -7 -42 9 -48 9 -4 19 -4 22 -1 3 3 0 5 -7 5 -7
0 -9 4 -6 10 8 12 -9 43 -18 34z"/>
<path d="M1986 3395 c4 -8 8 -15 10 -15 2 0 4 7 4 15 0 8 -4 15 -10 15 -5 0
-7 -7 -4 -15z"/>
<path d="M2171 3374 c0 -11 3 -14 6 -6 3 7 2 16 -1 19 -3 4 -6 -2 -5 -13z"/>
<path d="M3555 3370 c-4 -6 18 -10 61 -10 37 0 65 2 63 5 -11 10 -118 15 -124
5z"/>
<path d="M3497 3333 c-16 -3 -26 -10 -24 -16 5 -15 34 -10 61 9 21 14 18 15
-37 7z"/>
<path d="M945 3308 c-39 -21 -39 -21 -15 -30 18 -7 30 -4 49 10 55 41 32 55
-34 20z"/>
<path d="M3347 3306 c-28 -12 -66 -56 -49 -56 5 0 17 9 28 21 10 11 26 18 36
16 10 -3 18 -4 18 -2 0 2 3 10 6 19 7 19 -1 19 -39 2z"/>
<path d="M3526 3291 c-13 -5 -16 -10 -8 -15 15 -9 63 4 56 15 -6 11 -21 11
-48 0z"/>
<path d="M3405 3273 c-19 -10 -25 -18 -16 -21 7 -2 23 5 34 17 25 25 22 26
-18 4z"/>
<path d="M3688 3273 c7 -3 16 -2 19 1 4 3 -2 6 -13 5 -11 0 -14 -3 -6 -6z"/>
<path d="M963 3254 c-8 -21 1 -26 22 -11 16 13 16 14 1 20 -10 4 -19 1 -23 -9z"/>
<path d="M3330 3245 c-27 -29 -13 -33 21 -7 13 11 18 21 12 25 -6 4 -21 -5
-33 -18z"/>
<path d="M3420 3243 c-21 -22 -22 -25 -5 -18 11 4 30 10 43 13 13 2 21 10 19
16 -7 20 -31 15 -57 -11z"/>
<path d="M1565 3230 c3 -5 8 -10 11 -10 2 0 4 5 4 10 0 6 -5 10 -11 10 -5 0
-7 -4 -4 -10z"/>
<path d="M3448 3203 c-10 -2 -18 -8 -18 -13 0 -8 57 6 69 16 6 5 -29 3 -51 -3z"/>
<path d="M1751 3191 c-12 -8 -12 -12 2 -26 23 -22 21 -28 -4 -15 -11 7 -23 9
-26 7 -10 -10 19 -48 44 -58 21 -8 23 -12 13 -24 -10 -12 -10 -15 2 -15 8 0
23 -9 32 -19 13 -14 24 -17 39 -12 28 11 24 47 -10 81 -14 13 -20 26 -14 28
19 6 12 32 -8 32 -11 0 -26 7 -35 15 -17 17 -17 17 -35 6z"/>
<path d="M3530 3190 c-13 -9 -13 -10 0 -9 8 0 24 4 35 9 l20 9 -20 0 c-11 0
-27 -4 -35 -9z"/>
<path d="M955 3160 c-7 -12 12 -40 27 -40 13 0 6 43 -9 47 -6 2 -14 -1 -18 -7z"/>
<path d="M3385 3160 c-3 -5 -2 -10 4 -10 5 0 13 5 16 10 3 6 2 10 -4 10 -5 0
-13 -4 -16 -10z"/>
<path d="M2901 3134 c0 -11 3 -14 6 -6 3 7 2 16 -1 19 -3 4 -6 -2 -5 -13z"/>
<path d="M1728 3063 c6 -2 18 -2 25 0 6 3 1 5 -13 5 -14 0 -19 -2 -12 -5z"/>
<path d="M2150 3026 c0 -16 28 -42 36 -33 8 7 -14 47 -26 47 -6 0 -10 -6 -10
-14z"/>
<path d="M2791 2998 c0 -7 4 -22 9 -33 8 -18 9 -17 9 7 1 15 -3 30 -9 33 -5 3
-10 0 -9 -7z"/>
<path d="M3032 2998 c2 -6 10 -14 16 -16 7 -2 10 2 6 12 -7 18 -28 22 -22 4z"/>
<path d="M2761 2984 c0 -11 3 -14 6 -6 3 7 2 16 -1 19 -3 4 -6 -2 -5 -13z"/>
<path d="M2535 2960 c4 -11 2 -20 -4 -20 -6 0 -11 -6 -11 -13 0 -20 29 -17 35
3 7 21 -3 50 -17 50 -5 0 -6 -9 -3 -20z"/>
<path d="M3122 2940 c0 -14 2 -19 5 -12 2 6 2 18 0 25 -3 6 -5 1 -5 -13z"/>
<path d="M2832 2920 c0 -14 2 -19 5 -12 2 6 2 18 0 25 -3 6 -5 1 -5 -13z"/>
<path d="M2392 2890 c-7 -19 -6 -29 7 -44 15 -18 16 -17 19 8 2 14 -1 33 -7
43 -9 16 -11 16 -19 -7z"/>
<path d="M2660 2901 c0 -5 7 -11 15 -15 8 -3 15 -10 15 -16 0 -6 -4 -8 -10 -5
-5 3 -10 -1 -10 -9 0 -9 4 -16 9 -16 5 0 11 -8 13 -17 3 -16 6 -15 16 5 11 19
10 25 -8 44 -11 12 -20 25 -20 30 0 4 -4 8 -10 8 -5 0 -10 -4 -10 -9z"/>
<path d="M2750 2901 c0 -5 5 -13 10 -16 6 -3 10 -2 10 4 0 5 -4 13 -10 16 -5
3 -10 2 -10 -4z"/>
<path d="M1825 2870 c-16 -4 -49 -8 -73 -9 -38 -1 -49 -7 -92 -52 -52 -53 -57
-63 -40 -74 6 -4 8 -10 6 -14 -3 -4 -1 -13 5 -21 7 -13 9 -12 9 3 0 9 4 17 9
17 4 0 11 -26 14 -59 6 -76 34 -136 86 -188 60 -59 139 -95 225 -104 l71 -6
-72 -2 c-163 -3 -293 95 -332 250 -22 86 -37 74 -28 -22 4 -46 15 -76 46 -129
35 -58 52 -75 104 -106 84 -49 220 -77 290 -58 26 7 54 17 61 23 7 6 37 14 67
18 45 7 55 12 57 31 5 30 40 29 51 -2 5 -13 16 -26 24 -29 12 -4 11 4 -4 44
-11 27 -19 60 -19 74 0 28 -15 33 -24 9 -4 -9 -9 -14 -13 -10 -13 12 -12 37 3
72 13 32 10 84 -5 84 -3 0 -15 -21 -25 -47 -24 -59 -77 -118 -130 -146 -60
-32 -184 -31 -244 1 -146 77 -222 259 -150 355 16 19 42 43 60 52 41 20 143
32 152 17 3 -6 3 -36 -2 -67 -11 -67 2 -147 30 -192 27 -45 44 -41 62 15 13
37 14 59 6 107 -14 82 -13 93 8 97 24 5 -109 78 -140 77 -12 -1 -36 -5 -53 -9z
m252 -496 c-3 -3 -12 -4 -19 -1 -8 3 -5 6 6 6 11 1 17 -2 13 -5z"/>
<path d="M2561 2854 c0 -11 3 -14 6 -6 3 7 2 16 -1 19 -3 4 -6 -2 -5 -13z"/>
<path d="M2605 2840 c-4 -12 -5 -24 -2 -27 3 -2 8 5 12 17 4 12 5 24 2 27 -3
2 -8 -5 -12 -17z"/>
<path d="M2776 2837 c3 -10 9 -15 12 -12 3 3 0 11 -7 18 -10 9 -11 8 -5 -6z"/>
<path d="M2846 2841 c-4 -7 -5 -15 -2 -18 9 -9 19 4 14 18 -4 11 -6 11 -12 0z"/>
<path d="M2462 2815 c0 -16 2 -22 5 -12 2 9 2 23 0 30 -3 6 -5 -1 -5 -18z"/>
<path d="M2610 2765 c0 -8 5 -15 10 -15 6 0 10 7 10 15 0 8 -4 15 -10 15 -5 0
-10 -7 -10 -15z"/>
<path d="M2571 2743 c0 -25 1 -26 9 -8 12 27 12 35 0 35 -5 0 -10 -12 -9 -27z"/>
<path d="M2670 2759 c0 -5 -5 -7 -11 -3 -8 5 -8 1 0 -13 6 -11 7 -23 4 -27 -3
-3 -1 -6 5 -6 7 0 12 14 12 30 0 17 -2 30 -5 30 -3 0 -5 -5 -5 -11z"/>
<path d="M2770 2736 c0 -22 -5 -36 -12 -36 -9 0 -10 -2 -2 -8 7 -4 14 -16 16
-27 3 -11 6 6 9 38 2 33 1 61 -3 64 -5 2 -8 -12 -8 -31z"/>
<path d="M2696 2744 c-4 -9 -4 -19 -1 -22 3 -3 5 0 5 6 0 7 7 12 16 12 8 0 12
5 9 10 -9 15 -22 12 -29 -6z"/>
<path d="M2411 2734 c0 -11 3 -14 6 -6 3 7 2 16 -1 19 -3 4 -6 -2 -5 -13z"/>
<path d="M2831 2734 c0 -11 3 -14 6 -6 3 7 2 16 -1 19 -3 4 -6 -2 -5 -13z"/>
<path d="M2542 2700 c0 -14 2 -19 5 -12 2 6 2 18 0 25 -3 6 -5 1 -5 -13z"/>
<path d="M1345 2648 c-44 -17 -94 -36 -111 -42 -43 -16 -61 -32 -68 -61 -5
-18 -24 -33 -71 -56 -36 -17 -68 -35 -71 -40 -3 -5 -18 -9 -35 -9 -33 0 -38
-19 -11 -43 24 -21 50 -21 98 0 53 23 125 42 140 36 16 -6 27 23 30 75 2 39
20 79 32 68 2 -3 20 1 39 9 20 8 44 15 54 15 32 0 89 33 89 51 0 13 -23 33
-33 28 -1 0 -38 -14 -82 -31z"/>
<path d="M2710 2640 c0 -5 5 -10 10 -10 6 0 10 5 10 10 0 6 -4 10 -10 10 -5 0
-10 -4 -10 -10z"/>
<path d="M2650 2610 c0 -14 7 -20 22 -20 20 0 21 1 3 20 -10 11 -20 20 -22 20
-1 0 -3 -9 -3 -20z"/>
<path d="M2592 2600 c0 -14 2 -19 5 -12 2 6 2 18 0 25 -3 6 -5 1 -5 -13z"/>
<path d="M2765 2590 c-3 -5 -1 -10 4 -10 6 0 11 5 11 10 0 6 -2 10 -4 10 -3 0
-8 -4 -11 -10z"/>
<path d="M2631 2564 c0 -11 3 -14 6 -6 3 7 2 16 -1 19 -3 4 -6 -2 -5 -13z"/>
<path d="M2700 2548 c0 -9 5 -20 10 -23 13 -8 13 5 0 25 -8 13 -10 13 -10 -2z"/>
<path d="M2760 2551 c0 -6 4 -13 10 -16 6 -3 7 1 4 9 -7 18 -14 21 -14 7z"/>
<path d="M2670 2520 c0 -5 5 -10 11 -10 5 0 7 5 4 10 -3 6 -8 10 -11 10 -2 0
-4 -4 -4 -10z"/>
<path d="M2786 2502 c6 -4 14 -14 17 -22 4 -10 6 -8 6 8 1 15 -5 22 -16 22
-11 0 -14 -3 -7 -8z"/>
<path d="M3647 2493 c-13 -12 -7 -23 12 -23 11 0 23 5 27 12 4 7 3 8 -4 4 -7
-4 -12 -2 -12 3 0 12 -13 14 -23 4z"/>
<path d="M2755 2470 c18 -20 35 -26 35 -12 0 4 -12 12 -26 19 -26 12 -26 12
-9 -7z"/>
<path d="M3688 2453 c-10 -2 -18 -9 -18 -14 0 -14 26 -11 40 6 13 15 9 16 -22
8z"/>
<path d="M2730 2420 c0 -5 5 -10 11 -10 5 0 7 5 4 10 -3 6 -8 10 -11 10 -2 0
-4 -4 -4 -10z"/>
<path d="M2827 2403 c-4 -3 -7 -16 -6 -27 0 -19 1 -19 10 3 10 24 8 36 -4 24z"/>
<path d="M3415 2340 c3 -5 11 -10 16 -10 6 0 7 5 4 10 -3 6 -11 10 -16 10 -6
0 -7 -4 -4 -10z"/>
<path d="M3353 2314 c-17 -17 -6 -21 37 -14 26 5 31 8 18 13 -36 14 -43 14
-55 1z"/>
<path d="M2350 2276 c0 -12 -5 -16 -15 -12 -16 6 -21 -9 -6 -18 9 -6 1 -41
-25 -104 -8 -18 -14 -38 -14 -44 0 -6 -7 -20 -17 -30 -15 -17 -15 -18 0 -18
10 0 17 -7 17 -15 0 -8 5 -15 11 -15 6 0 8 -9 4 -20 -4 -11 -2 -20 4 -20 6 0
11 5 11 11 0 6 12 9 28 7 23 -3 27 -8 30 -39 3 -32 7 -37 40 -47 28 -9 38 -9
44 1 16 24 3 33 -39 28 -7 -1 -13 3 -13 9 0 5 6 10 13 10 9 0 14 14 15 38 2
33 -1 37 -23 37 -18 0 -25 -5 -25 -18 0 -11 -6 -17 -12 -15 -21 7 -21 35 0 56
10 10 22 27 27 38 12 28 5 87 -12 106 -8 9 -21 34 -29 55 -7 21 -13 30 -14 19z
m87 -352 c-3 -3 -12 -4 -19 -1 -8 3 -5 6 6 6 11 1 17 -2 13 -5z"/>
<path d="M2871 2281 c-8 -5 -9 -11 -3 -15 5 -3 12 1 16 9 6 17 6 18 -13 6z"/>
<path d="M3388 2273 c-34 -5 -35 -10 -4 -38 32 -30 62 -37 78 -17 11 13 11 15
-2 10 -18 -7 -45 18 -30 27 6 3 10 10 10 16 0 9 -3 9 -52 2z"/>
<path d="M1717 2214 c-13 -14 -7 -32 14 -37 16 -4 20 -1 17 15 -3 22 -19 33
-31 22z"/>
<path d="M1690 2130 c0 -5 4 -10 9 -10 6 0 13 5 16 10 3 6 -1 10 -9 10 -9 0
-16 -4 -16 -10z"/>
<path d="M2880 2125 c7 -9 15 -13 17 -11 7 7 -7 26 -19 26 -6 0 -6 -6 2 -15z"/>
<path d="M2070 2111 c0 -6 4 -13 10 -16 6 -3 7 1 4 9 -7 18 -14 21 -14 7z"/>
<path d="M1150 2100 c0 -5 12 -10 28 -10 21 0 24 2 12 10 -20 13 -40 13 -40 0z"/>
<path d="M2010 2066 c0 -9 30 -14 35 -6 4 6 -3 10 -14 10 -12 0 -21 -2 -21 -4z"/>
<path d="M1280 2019 c0 -5 5 -7 10 -4 6 3 10 8 10 11 0 2 -4 4 -10 4 -5 0 -10
-5 -10 -11z"/>
<path d="M2520 1980 c0 -11 7 -20 15 -20 17 0 18 2 9 24 -9 23 -24 20 -24 -4z"/>
<path d="M2521 1904 c0 -11 3 -14 6 -6 3 7 2 16 -1 19 -3 4 -6 -2 -5 -13z"/>
<path d="M3615 1801 c-44 -10 -105 -40 -105 -51 0 -6 -13 -9 -29 -8 -17 1 -38
-5 -49 -15 -10 -9 -28 -17 -40 -17 -11 0 -24 -4 -27 -10 -3 -5 -15 -10 -26
-10 -14 0 -19 -7 -19 -25 0 -18 5 -25 19 -25 11 0 21 5 23 10 2 6 36 12 77 15
77 4 100 12 63 22 -38 10 -24 23 26 23 53 0 85 13 57 24 -23 8 -9 26 21 26 14
0 23 4 20 9 -3 5 8 11 24 15 17 3 30 10 30 16 0 11 -18 11 -65 1z"/>
<path d="M2130 1754 c0 -8 5 -12 10 -9 6 4 8 11 5 16 -9 14 -15 11 -15 -7z"/>
<path d="M2781 1734 c0 -11 3 -14 6 -6 3 7 2 16 -1 19 -3 4 -6 -2 -5 -13z"/>
<path d="M2808 1733 c6 -2 18 -2 25 0 6 3 1 5 -13 5 -14 0 -19 -2 -12 -5z"/>
<path d="M3734 1703 c9 -10 144 -41 206 -49 43 -5 44 -4 25 11 -20 16 -19 16
5 11 137 -29 188 -30 163 -5 -16 16 -176 39 -190 27 -8 -7 -39 -6 -94 1 -96
13 -125 14 -115 4z"/>
<path d="M3680 1649 c0 -5 19 -9 42 -9 49 0 47 5 -4 13 -21 3 -38 2 -38 -4z"/>
<path d="M3545 1640 l-30 -7 29 -8 c17 -4 31 -4 35 2 3 6 13 13 21 16 22 8
-18 6 -55 -3z"/>
<path d="M2727 1614 c-9 -10 2 -24 19 -24 8 0 14 7 14 15 0 15 -21 21 -33 9z"/>
<path d="M3443 1610 c-13 -6 -23 -18 -23 -30 0 -16 6 -20 33 -20 21 0 41 8 51
19 17 19 17 20 -3 30 -23 13 -28 13 -58 1z"/>
<path d="M2878 1426 c-21 -16 -23 -52 -4 -71 12 -12 18 -10 40 15 l26 30 -20
20 c-23 23 -20 23 -42 6z"/>
<path d="M3142 4618 c-5 -7 -13 -23 -16 -35 -4 -14 -15 -23 -27 -23 -10 0 -19
-3 -19 -7 1 -30 54 -52 67 -29 5 9 21 17 36 18 17 2 26 7 23 15 -3 7 -1 15 3
18 5 3 4 16 -2 30 -13 27 -48 34 -65 13z"/>
<path d="M2701 3424 c0 -11 3 -14 6 -6 3 7 2 16 -1 19 -3 4 -6 -2 -5 -13z"/>
<path d="M2640 3358 c0 -16 5 -28 10 -28 13 0 13 20 0 40 -8 12 -10 9 -10 -12z"/>
<path d="M2661 3214 c0 -11 3 -14 6 -6 3 7 2 16 -1 19 -3 4 -6 -2 -5 -13z"/>
<path d="M2925 3670 c-3 -5 -1 -10 4 -10 6 0 11 5 11 10 0 6 -2 10 -4 10 -3 0
-8 -4 -11 -10z"/>
<path d="M4160 5051 c0 -6 5 -11 11 -11 7 0 17 -8 24 -17 12 -15 14 -16 28 -1
15 15 14 16 -7 22 -13 3 -31 9 -40 12 -9 3 -16 1 -16 -5z"/>
<path d="M4195 4930 c3 -5 10 -10 16 -10 5 0 9 5 9 10 0 6 -7 10 -16 10 -8 0
-12 -4 -9 -10z"/>
<path d="M4117 4813 c-3 -4 1 -17 9 -28 10 -13 14 -15 14 -4 0 20 -16 43 -23
32z"/>
<path d="M4245 4811 c-3 -6 -5 -35 -4 -66 2 -59 0 -65 -25 -69 -17 -2 -19 -7
-10 -30 3 -8 0 -24 -6 -36 -14 -26 2 -50 34 -50 19 0 21 5 18 40 -3 31 -1 40
11 40 12 0 17 16 22 65 4 35 4 76 1 90 -6 25 -29 34 -41 16z"/>
<path d="M3540 4619 c0 -5 5 -7 10 -4 6 3 10 8 10 11 0 2 -4 4 -10 4 -5 0 -10
-5 -10 -11z"/>
<path d="M3460 4536 c0 -8 -7 -17 -16 -20 -21 -8 -14 -50 9 -54 14 -3 17 1 12
20 -4 16 -1 29 9 37 20 17 20 31 1 31 -8 0 -15 -6 -15 -14z"/>
<path d="M4185 4530 c-8 -13 5 -13 25 0 13 8 13 10 -2 10 -9 0 -20 -4 -23 -10z"/>
<path d="M3550 4330 c-12 -7 -12 -10 2 -15 9 -4 25 -5 35 -3 17 4 16 5 -3 15
-12 7 -26 8 -34 3z"/>
</g>
</svg>
